<?xml version="1.0" encoding="iso-8859-1"?>
<!-- Generator: Adobe Illustrator 19.0.0, SVG Export Plug-In . SVG Version: 6.00 Build 0)  -->
<svg version="1.1" id="Capa_1" xmlns="http://www.w3.org/2000/svg" xmlns:xlink="http://www.w3.org/1999/xlink" x="0px" y="0px"
	 viewBox="0 0 512 512" style="enable-background:new 0 0 512 512;" xml:space="preserve">
<path style="fill:#F2F2F2;" d="M483.163,200.596l-38.703,15.651l-12.131,46.374h-12.261l-9.581,49.634l-57.154-46.284l-1.23-17.051
	l-9.711,1.7l7.901,40.043l-28.362,23.762l-7.401,16.291l-22.572,10.621l-10.991,5.17c-6.32,12.281-15.321,25.652-25.742,29.052
	c-1.02,0.41-2.71,1.51-4.75,3.05c-3.38,2.55-7.721,6.27-11.501,9.951c-4.37,6.711-7.861,15.881-7.031,18.731
	c1.07,3.57,4.32,14.431-10.781,51.314c-3.3,8.061-14.861,35.053-25.072,43.983C187.92,509.74,179.269,512,172.098,512
	c-5.17,0-9.581-1.18-12.481-2.53l-6.701-3.13l-10.521-47.324L98.433,341.337l-3-8.031v-25.752l-1.28-5.26l-13.521,10.951
	l-34.713-19.342l-17.081-48.224l30.982-18.721l-14.471-36.793l17.881-19.502l7.881-8.601l20.552,1.99l22.322-22.802l7.481-27.122
	l-20.812-28.152V64.915L76.151,30.422L129.985,0l26.432,23.322l44.093,3.24l32.853,26.702l-18.881,51.764l18.741,32.042v22.572
	l17.251,6.751l10.921,4.27l42.823,16.751l15.191-16.751l12.771-14.081l17.741,14.081l9.991,7.931l11.791-2.42l6.851-5.51
	l32.333-25.992h44.663l12.831,25.992L483.163,200.596z"/>
<path style="fill:#FF633E;" d="M483.163,200.596l-38.703,15.651l-12.131,46.374h-12.261l-9.581,49.634l-57.154-46.284l-1.23-17.051
	l-9.711,1.7l7.901,40.043l-28.362,23.762l-7.401,16.291l-22.572,10.621l-10.991,5.17c-6.32,12.281-15.321,25.652-25.742,29.052
	c-1.02,0.41-2.71,1.51-4.75,3.05c-3.38,2.55-7.721,6.27-11.501,9.951c-4.37,6.711-7.861,15.881-7.031,18.731
	c1.07,3.57,4.32,14.431-10.781,51.314c-3.3,8.061-14.861,35.053-25.072,43.983C187.92,509.74,179.269,512,172.098,512
	c-5.17,0-9.581-1.18-12.481-2.53l-6.701-3.13l-10.521-47.324L98.433,341.337l-3-8.031v-25.752l-1.28-5.26l-13.521,10.951
	l-34.713-19.342l-17.081-48.224l30.982-18.721l-14.471-36.793l17.881-19.502l7.881-8.601l20.552,1.99l22.322-22.802l7.481-27.122
	l-20.812-28.152V64.915L76.151,30.422L129.985,0l26.432,23.322l44.093,3.24l32.853,26.702l-18.881,51.764l18.741,32.042v22.572
	l17.251,6.751l10.921,4.27l42.823,16.751l15.191-16.751l12.771-14.081l17.741,14.081l9.991,7.931l11.791-2.42l6.851-5.51
	l32.333-25.992h44.663l12.831,25.992L483.163,200.596z"/>
<path style="fill:#FF3100;" d="M483.163,200.596l-38.703,15.651l-12.131,46.374h-12.261l-9.581,49.634l-57.154-46.284l-1.23-17.051
	l-9.711,1.7l7.901,40.043l-28.362,23.762l-7.401,16.291l-22.572,10.621l-10.991,5.17c-6.32,12.281-15.321,25.652-25.742,29.052
	c-1.02,0.41-2.71,1.51-4.75,3.05V166.393l10.921,4.27l42.823,16.751l15.191-16.751l12.771-14.081l17.741,14.081l9.991,7.931
	l11.791-2.42l6.851-5.51l32.333-25.992h44.663l12.831,25.992L483.163,200.596z"/>
<polygon style="fill:#F2F2F2;" points="483.163,200.596 444.46,216.247 432.329,262.621 420.068,262.621 410.487,312.254 
	353.333,265.971 352.103,248.919 342.392,250.62 350.292,290.663 321.93,314.425 314.53,330.716 291.958,341.337 98.433,341.337 
	95.432,333.306 95.432,307.554 94.152,302.294 80.631,313.245 45.919,293.903 28.837,245.679 59.82,226.958 45.349,190.165 
	63.23,170.663 261.395,170.663 304.219,187.415 319.41,170.663 349.922,170.663 359.913,178.594 371.704,176.174 378.555,170.663 
	468.382,170.663 "/>
<polygon style="fill:#DDDDDD;" points="483.163,200.596 444.46,216.247 432.329,262.621 420.068,262.621 410.487,312.254 
	353.333,265.971 352.103,248.919 342.392,250.62 350.292,290.663 321.93,314.425 314.53,330.716 291.958,341.337 250.475,341.337 
	250.475,170.663 261.395,170.663 304.219,187.415 319.41,170.663 349.922,170.663 359.913,178.594 371.704,176.174 378.555,170.663 
	468.382,170.663 "/>
<path style="fill:#00C500;" d="M291.958,341.337l-10.991,5.17c-6.32,12.281-15.321,25.652-25.742,29.052
	c-1.02,0.41-2.71,1.51-4.75,3.05c-3.38,2.55-7.721,6.27-11.501,9.951c-4.37,6.711-7.861,15.881-7.031,18.731
	c1.07,3.57,4.32,14.431-10.781,51.314c-3.3,8.061-14.861,35.053-25.072,43.983C187.92,509.74,179.269,512,172.098,512
	c-5.17,0-9.581-1.18-12.481-2.53l-6.701-3.13l-10.521-47.324L98.433,341.337H291.958z"/>
<path style="fill:#008E00;" d="M291.958,341.337l-10.991,5.17c-6.32,12.281-15.321,25.652-25.742,29.052
	c-1.02,0.41-2.71,1.51-4.75,3.05v-37.273H291.958z"/>
<g>
</g>
<g>
</g>
<g>
</g>
<g>
</g>
<g>
</g>
<g>
</g>
<g>
</g>
<g>
</g>
<g>
</g>
<g>
</g>
<g>
</g>
<g>
</g>
<g>
</g>
<g>
</g>
<g>
</g>
</svg>
